<svg xmlns="http://www.w3.org/2000/svg" xmlns:xlink="http://www.w3.org/1999/xlink" width="100" zoomAndPan="magnify" viewBox="0 0 75 30.000001" height="40" preserveAspectRatio="xMidYMid meet" version="1.0"><defs><g/><clipPath id="fdbd7c7f05"><path d="M 61.726562 6.382812 L 71.890625 6.382812 L 71.890625 22.351562 L 61.726562 22.351562 Z M 61.726562 6.382812 " clip-rule="nonzero"/></clipPath><clipPath id="23cc20dc1b"><path d="M 57.496094 6.382812 L 67.65625 6.382812 L 67.65625 22.351562 L 57.496094 22.351562 Z M 57.496094 6.382812 " clip-rule="nonzero"/></clipPath></defs><g fill="#ffffff" fill-opacity="1"><g transform="translate(7.704234, 19.354837)"><g><path d="M 1.484375 -15.453125 C 1.890625 -15.859375 2.367188 -16.0625 2.921875 -16.0625 C 3.472656 -16.0625 3.945312 -15.859375 4.34375 -15.453125 C 4.75 -15.054688 4.953125 -14.578125 4.953125 -14.015625 C 4.953125 -13.460938 4.75 -12.988281 4.34375 -12.59375 C 3.945312 -12.195312 3.472656 -12 2.921875 -12 C 2.367188 -12 1.890625 -12.195312 1.484375 -12.59375 C 1.085938 -12.988281 0.890625 -13.460938 0.890625 -14.015625 C 0.890625 -14.578125 1.085938 -15.054688 1.484375 -15.453125 Z M 1.15625 -9.921875 L 1.15625 0.875 C 1.15625 1.769531 0.84375 2.21875 0.21875 2.21875 C 0.0820312 2.21875 -0.0507812 2.195312 -0.1875 2.15625 C -0.332031 2.113281 -0.453125 2.066406 -0.546875 2.015625 L -0.65625 1.9375 L -1.71875 4.703125 C -1.695312 4.710938 -1.613281 4.75 -1.46875 4.8125 C -1.320312 4.875 -1.210938 4.921875 -1.140625 4.953125 C -1.078125 4.992188 -0.960938 5.039062 -0.796875 5.09375 C -0.628906 5.144531 -0.46875 5.179688 -0.3125 5.203125 C -0.15625 5.222656 0.0351562 5.242188 0.265625 5.265625 C 0.503906 5.296875 0.75 5.3125 1 5.3125 C 1.644531 5.3125 2.210938 5.195312 2.703125 4.96875 C 3.191406 4.75 3.566406 4.445312 3.828125 4.0625 C 4.085938 3.6875 4.273438 3.289062 4.390625 2.875 C 4.515625 2.457031 4.578125 2.007812 4.578125 1.53125 L 4.578125 -9.921875 Z M 1.15625 -9.921875 "/></g></g></g><g fill="#ffffff" fill-opacity="1"><g transform="translate(12.482606, 19.354837)"><g><path d="M 2.09375 -1.171875 C 0.988281 -2.160156 0.4375 -3.421875 0.4375 -4.953125 C 0.4375 -6.484375 1.007812 -7.742188 2.15625 -8.734375 C 3.3125 -9.722656 4.734375 -10.21875 6.421875 -10.21875 C 8.085938 -10.21875 9.488281 -9.71875 10.625 -8.71875 C 11.769531 -7.726562 12.34375 -6.472656 12.34375 -4.953125 C 12.34375 -3.429688 11.785156 -2.175781 10.671875 -1.1875 C 9.554688 -0.195312 8.140625 0.296875 6.421875 0.296875 C 4.640625 0.296875 3.195312 -0.191406 2.09375 -1.171875 Z M 4.75 -6.640625 C 4.300781 -6.203125 4.078125 -5.640625 4.078125 -4.953125 C 4.078125 -4.265625 4.289062 -3.703125 4.71875 -3.265625 C 5.144531 -2.835938 5.707031 -2.625 6.40625 -2.625 C 7.070312 -2.625 7.617188 -2.84375 8.046875 -3.28125 C 8.484375 -3.726562 8.703125 -4.285156 8.703125 -4.953125 C 8.703125 -5.640625 8.476562 -6.203125 8.03125 -6.640625 C 7.59375 -7.078125 7.050781 -7.296875 6.40625 -7.296875 C 5.75 -7.296875 5.195312 -7.078125 4.75 -6.640625 Z M 4.75 -6.640625 "/></g></g></g><g fill="#ffffff" fill-opacity="1"><g transform="translate(24.303369, 19.354837)"><g><path d="M 11.375 -8.6875 C 12.300781 -7.664062 12.765625 -6.421875 12.765625 -4.953125 C 12.765625 -3.484375 12.300781 -2.238281 11.375 -1.21875 C 10.445312 -0.207031 9.265625 0.296875 7.828125 0.296875 C 6.515625 0.296875 5.429688 -0.175781 4.578125 -1.125 L 4.546875 -1.125 L 4.546875 0 L 1.15625 0 L 1.15625 -16.640625 L 4.578125 -16.640625 L 4.578125 -8.96875 C 5.429688 -9.800781 6.515625 -10.21875 7.828125 -10.21875 C 9.265625 -10.21875 10.445312 -9.707031 11.375 -8.6875 Z M 8.484375 -3.265625 C 8.910156 -3.703125 9.125 -4.265625 9.125 -4.953125 C 9.125 -5.640625 8.898438 -6.203125 8.453125 -6.640625 C 8.015625 -7.078125 7.46875 -7.296875 6.8125 -7.296875 C 6.164062 -7.296875 5.617188 -7.078125 5.171875 -6.640625 C 4.722656 -6.203125 4.5 -5.640625 4.5 -4.953125 C 4.5 -4.285156 4.710938 -3.726562 5.140625 -3.28125 C 5.578125 -2.84375 6.132812 -2.625 6.8125 -2.625 C 7.507812 -2.625 8.066406 -2.835938 8.484375 -3.265625 Z M 8.484375 -3.265625 "/></g></g></g><g fill="#ffffff" fill-opacity="1"><g transform="translate(36.549763, 19.354837)"><g><path d="M 5.46875 -10.21875 C 6.039062 -10.21875 6.601562 -10.148438 7.15625 -10.015625 C 7.707031 -9.890625 8.117188 -9.765625 8.390625 -9.640625 L 8.796875 -9.4375 L 7.671875 -7.203125 C 6.898438 -7.609375 6.164062 -7.8125 5.46875 -7.8125 C 5.082031 -7.8125 4.804688 -7.769531 4.640625 -7.6875 C 4.484375 -7.601562 4.40625 -7.445312 4.40625 -7.21875 C 4.40625 -7.164062 4.410156 -7.113281 4.421875 -7.0625 C 4.441406 -7.007812 4.46875 -6.957031 4.5 -6.90625 C 4.539062 -6.863281 4.578125 -6.828125 4.609375 -6.796875 C 4.640625 -6.765625 4.691406 -6.726562 4.765625 -6.6875 C 4.847656 -6.65625 4.910156 -6.628906 4.953125 -6.609375 C 5.003906 -6.585938 5.082031 -6.554688 5.1875 -6.515625 C 5.289062 -6.472656 5.367188 -6.441406 5.421875 -6.421875 C 5.472656 -6.410156 5.554688 -6.382812 5.671875 -6.34375 C 5.796875 -6.300781 5.890625 -6.273438 5.953125 -6.265625 C 6.359375 -6.148438 6.707031 -6.019531 7 -5.875 C 7.300781 -5.738281 7.613281 -5.546875 7.9375 -5.296875 C 8.269531 -5.054688 8.523438 -4.75 8.703125 -4.375 C 8.878906 -4 8.96875 -3.570312 8.96875 -3.09375 C 8.96875 -0.832031 7.40625 0.296875 4.28125 0.296875 C 3.570312 0.296875 2.894531 0.1875 2.25 -0.03125 C 1.613281 -0.257812 1.15625 -0.484375 0.875 -0.703125 L 0.4375 -1.046875 L 1.84375 -3.390625 C 1.945312 -3.296875 2.082031 -3.1875 2.25 -3.0625 C 2.414062 -2.9375 2.71875 -2.769531 3.15625 -2.5625 C 3.59375 -2.351562 3.972656 -2.25 4.296875 -2.25 C 5.003906 -2.25 5.359375 -2.484375 5.359375 -2.953125 C 5.359375 -3.171875 5.265625 -3.34375 5.078125 -3.46875 C 4.898438 -3.59375 4.59375 -3.734375 4.15625 -3.890625 C 3.726562 -4.046875 3.394531 -4.1875 3.15625 -4.3125 C 2.53125 -4.632812 2.035156 -5 1.671875 -5.40625 C 1.316406 -5.8125 1.140625 -6.347656 1.140625 -7.015625 C 1.140625 -8.023438 1.53125 -8.8125 2.3125 -9.375 C 3.09375 -9.9375 4.144531 -10.21875 5.46875 -10.21875 Z M 5.46875 -10.21875 "/></g></g></g><g fill="#ffffff" fill-opacity="1"><g transform="translate(45.100842, 19.354837)"><g><path d="M 8.6875 -9.921875 L 12.625 -9.921875 L 4.84375 5.03125 L 0.890625 5.03125 L 4.3125 -1.546875 L -0.390625 -9.921875 L 3.5625 -9.921875 L 6.328125 -4.84375 Z M 8.6875 -9.921875 "/></g></g></g><g clip-path="url(#fdbd7c7f05)"><path fill="#058ed9" d="M 69.816406 22.628906 L 61.730469 14.539062 L 69.871094 6.398438 L 71.527344 8.054688 L 65.039062 14.539062 L 71.472656 20.972656 L 69.816406 22.628906 " fill-opacity="1" fill-rule="nonzero"/></g><g clip-path="url(#23cc20dc1b)"><path fill="#058ed9" d="M 65.582031 22.628906 L 57.496094 14.539062 L 65.640625 6.398438 L 67.292969 8.054688 L 60.808594 14.539062 L 67.238281 20.972656 L 65.582031 22.628906 " fill-opacity="1" fill-rule="nonzero"/></g></svg>